<?xml version="1.0" encoding="utf-8"?>
<!-- Generator: Adobe Illustrator 27.0.0, SVG Export Plug-In . SVG Version: 6.00 Build 0)  -->
<svg version="1.1" id="Ebene_1" xmlns="http://www.w3.org/2000/svg" xmlns:xlink="http://www.w3.org/1999/xlink" x="0px" y="0px"
	 viewBox="0 0 205.5 215.8" style="enable-background:new 0 0 205.5 215.8;" xml:space="preserve">
<style type="text/css">
	.st0{fill:#1D1D1B;}
	.st1{fill:#DCFF7D;}
</style>
<g>
	<g>
		<path class="st0" d="M14,63.8l2.1,1.1l3.2-6.1c0.9,0.4,1.6,1,2.2,1.6c0.6,0.7,1.1,1.4,1.3,2.2s0.4,1.7,0.3,2.6
			c-0.1,0.9-0.4,1.9-0.9,2.9c-0.6,1.1-1.3,1.9-2.1,2.5c-0.8,0.6-1.8,1-2.7,1.1c-1,0.2-2,0.2-3.1,0c-1.1-0.2-2.1-0.6-3.1-1.1
			c-1-0.5-1.9-1.2-2.8-1.9c-0.8-0.8-1.5-1.6-2-2.5c-0.5-0.9-0.7-1.9-0.8-3s0.3-2.2,0.9-3.3c0.4-0.7,0.8-1.3,1.3-1.9
			c0.5-0.5,1-1,1.6-1.3c0.6-0.3,1.2-0.5,1.9-0.6c0.7-0.1,1.4,0,2.2,0.3l1.3-2.5c-1.2-0.4-2.3-0.6-3.4-0.5c-1,0.1-2,0.3-2.9,0.8
			c-0.9,0.4-1.7,1.1-2.4,1.8c-0.7,0.8-1.3,1.7-1.9,2.7c-0.8,1.5-1.2,3-1.2,4.4c0,1.4,0.2,2.8,0.8,4c0.5,1.2,1.3,2.4,2.4,3.4l0,0
			c1,1,2.3,1.9,3.6,2.6c1.2,0.7,2.5,1.1,3.9,1.3c1.4,0.2,2.7,0.1,4-0.2c1.3-0.3,2.5-0.9,3.6-1.7c1.1-0.8,2-2,2.8-3.4
			c0.6-1.1,1-2.3,1.1-3.7c0.1-1.3-0.1-2.6-0.7-3.9l2.7,0.6l0.8-1.6l-10-5.3L14,63.8z"/>
		<path class="st0" d="M37.7,40c-0.7-1.2-1.6-2.3-2.7-3.3c-1.1-1-2.3-1.7-3.6-2.3c-1.3-0.6-2.6-0.9-4-0.9c-1.3,0-2.7,0.2-4,0.7
			c-1.3,0.5-2.5,1.5-3.7,2.7c-1.1,1.3-1.9,2.6-2.3,4c-0.4,1.4-0.5,2.7-0.3,4.1c0.2,1.3,0.7,2.6,1.4,3.8c0.7,1.2,1.6,2.3,2.7,3.3
			c1.1,1,2.3,1.7,3.6,2.3c1.3,0.6,2.6,0.9,4,0.9c1.3,0,2.7-0.2,4-0.8c1.3-0.6,2.5-1.5,3.7-2.7c1.1-1.3,1.9-2.6,2.3-3.9
			c0.4-1.4,0.5-2.7,0.3-4C38.9,42.5,38.4,41.3,37.7,40z M36.4,47.3c-0.2,1-0.8,2-1.7,3c-0.9,1-1.8,1.6-2.8,2c-1,0.4-2,0.5-3,0.4
			c-1-0.1-2-0.4-3-0.9c-1-0.5-1.9-1.1-2.7-1.8c-0.8-0.7-1.5-1.5-2.1-2.4c-0.6-0.9-1-1.9-1.2-2.9c-0.2-1-0.2-2,0-3.1v0
			c0.2-1,0.8-2,1.7-3c0.9-1,1.8-1.6,2.8-2c1-0.4,2-0.5,3-0.4c1,0.1,2,0.4,3,0.9c1,0.5,1.9,1.1,2.7,1.8s1.5,1.5,2.1,2.4
			c0.6,0.9,1,1.9,1.2,2.9C36.7,45.2,36.7,46.2,36.4,47.3z"/>
		<path class="st0" d="M60.4,23c0.4,0.8,0.6,1.6,0.8,2.4c0.1,0.8,0.1,1.6-0.1,2.3c-0.2,0.7-0.5,1.4-1,2.1c-0.5,0.6-1.1,1.2-1.9,1.6
			c-1.1,0.6-2.2,1-3.2,1c-1,0-2-0.1-2.9-0.6c-0.9-0.4-1.8-1-2.5-1.8c-0.8-0.8-1.5-1.7-2.1-2.8c-0.6-1-1-2-1.2-3
			c-0.3-1-0.4-2.1-0.2-3.1c0.1-1,0.4-1.9,1-2.8c0.6-0.9,1.4-1.6,2.5-2.3c1.3-0.7,2.6-1.1,3.9-0.9c1.3,0.1,2.5,0.8,3.5,1.9l2.5-1.4
			c-0.7-0.9-1.5-1.6-2.4-2.1c-0.9-0.5-1.8-0.8-2.8-0.9c-1-0.1-2-0.1-3,0.2c-1,0.2-2,0.6-3,1.2c-1.4,0.8-2.5,1.8-3.3,2.9
			c-0.8,1.1-1.3,2.4-1.6,3.7C43,22,43,23.4,43.3,24.8c0.3,1.4,0.8,2.8,1.6,4.1l0,0c0.8,1.4,1.7,2.5,2.7,3.5c1,1,2.2,1.7,3.4,2.2
			c1.2,0.5,2.5,0.6,3.9,0.5c1.4-0.1,2.8-0.6,4.2-1.4c2.4-1.4,3.9-3.1,4.5-5.2c0.6-2.1,0.4-4.4-0.7-6.9L60.4,23z"/>
		<polygon class="st0" points="76.6,3.2 79.2,12.1 68.4,15.3 65.8,6.4 63,7.3 69.1,27.8 71.9,27 69.1,17.6 79.9,14.4 82.7,23.8 
			85.4,23 79.3,2.4 		"/>
		<polygon class="st0" points="91.6,19.9 91.1,12.5 102.2,11.6 102,9.2 90.9,10.1 90.4,3.3 102.3,2.4 102.1,0 87.4,1.1 89,22.5 
			103.8,21.4 103.6,19 		"/>
		<path class="st0" d="M110.3,7.7c0.4-1,1-1.9,1.7-2.6c0.7-0.7,1.5-1.3,2.5-1.6c1-0.4,2.1-0.4,3.4-0.3c1.5,0.2,2.7,0.8,3.7,1.6
			c1,0.9,1.5,2.1,1.6,3.7l2.8,0.4c0-1.2-0.2-2.2-0.6-3.1c-0.4-0.9-0.9-1.7-1.6-2.4c-0.7-0.7-1.5-1.2-2.5-1.7c-1-0.4-2-0.7-3.1-0.9
			c-1.6-0.2-3.1-0.1-4.4,0.3c-1.3,0.4-2.5,1.1-3.5,2c-1,0.9-1.8,2-2.4,3.3c-0.6,1.3-1,2.7-1.2,4.3c-0.2,1.5-0.2,3,0,4.4
			c0.2,1.4,0.7,2.7,1.4,3.8c0.7,1.1,1.6,2,2.7,2.7c1.2,0.7,2.6,1.2,4.2,1.4c2.7,0.4,5-0.1,6.7-1.4l0,0c1.8-1.3,3-3.2,3.6-5.9
			l-2.8-0.4c-0.2,0.9-0.5,1.7-0.9,2.4s-0.9,1.3-1.5,1.8c-0.6,0.5-1.3,0.8-2,1c-0.8,0.2-1.6,0.3-2.5,0.1c-1.3-0.2-2.3-0.6-3.2-1.2
			c-0.8-0.6-1.5-1.3-2-2.2c-0.5-0.9-0.8-1.9-0.9-3c-0.1-1.1-0.1-2.3,0-3.5C109.6,9.7,109.9,8.7,110.3,7.7z"/>
		<polygon class="st0" points="146.9,9.3 132.9,15.5 136.7,5.5 134,4.5 126.5,24.6 129.2,25.6 131.8,18.6 136.3,16.7 139.8,29.6 
			143.2,30.8 138.8,15.6 150.3,10.6 		"/>
		<path class="st0" d="M172.8,39.1c0.9-1.1,1.6-2.4,2.1-3.7c0.5-1.3,0.7-2.7,0.7-4c0-1.3-0.3-2.7-1-3.9c-0.6-1.3-1.6-2.5-2.9-3.5
			c-1.3-1.1-2.7-1.7-4.1-2.1c-1.4-0.3-2.7-0.3-4.1-0.1s-2.6,0.8-3.8,1.6c-1.2,0.8-2.2,1.8-3.1,2.9c-0.9,1.1-1.6,2.4-2.1,3.7
			c-0.5,1.3-0.7,2.7-0.7,4c0,1.3,0.3,2.7,1,3.9c0.6,1.3,1.6,2.4,2.9,3.5h0c1.3,1.1,2.7,1.8,4.1,2.1s2.7,0.3,4.1,0.1
			c1.3-0.3,2.6-0.8,3.8-1.6C170.8,41.2,171.8,40.3,172.8,39.1z M168.2,39.6c-0.9,0.6-1.8,1.1-2.8,1.4c-1,0.3-2,0.3-3.1,0.1
			c-1.1-0.2-2.1-0.7-3.1-1.5c-1-0.8-1.7-1.7-2.1-2.7c-0.4-1-0.6-2-0.5-3c0.1-1,0.3-2,0.7-3v0c0.4-1,1-1.9,1.7-2.8
			c0.7-0.8,1.4-1.6,2.3-2.2c0.9-0.6,1.8-1.1,2.8-1.4s2-0.3,3.1-0.1c1.1,0.2,2.1,0.7,3.1,1.5c1,0.8,1.7,1.7,2.1,2.7
			c0.4,1,0.6,2,0.5,3c-0.1,1-0.3,2-0.7,3c-0.4,1-1,1.9-1.7,2.8C169.9,38.2,169.1,38.9,168.2,39.6z"/>
		<path class="st0" d="M195,49.6l-1.8-2.2l-10.8,8.4c-1.5,1.2-3,1.7-4.3,1.6c-1.4-0.1-2.6-0.9-3.7-2.4c-1.2-1.5-1.7-3-1.5-4.4
			c0.2-1.4,1-2.7,2.5-3.9l10.8-8.4l-1.8-2.2l-10.8,8.4c-2.3,1.8-3.4,3.7-3.5,5.7c-0.1,2,0.7,4.1,2.4,6.3c1.7,2.1,3.5,3.3,5.5,3.7
			s4-0.4,6.2-2.1L195,49.6z"/>
		<polygon class="st0" points="198,54.4 195.8,55.5 199,61.9 181.9,70.3 183.1,72.8 200.2,64.5 203.4,70.9 205.5,69.8 		"/>
	</g>
	<g>
		<polygon class="st0" points="36.2,161.3 17.4,165.3 28.9,149.9 26.8,146.6 8.8,158.2 10.2,160.5 25.2,150.8 25.2,150.9 
			13.9,166.2 15.2,168.2 33.8,164.2 33.8,164.2 18.8,173.9 20.3,176.2 38.3,164.6 		"/>
		<polygon class="st0" points="50.5,175.9 39,179 41.2,167.2 38.8,164.9 36.2,179.8 30.2,186.2 32.3,188.1 38.3,181.7 52.9,178.1 		
			"/>
		<path class="st0" d="M72.2,190.2L72.2,190.2c-0.5-1.5-1.8-2.7-3.7-3.6l-8.5-4.1l-9.3,19.3l2.6,1.2l3.8-7.9L63,198
			c1.9,1,3.6,1.2,5.1,0.6c1.5-0.5,2.7-1.7,3.5-3.5S72.7,191.7,72.2,190.2z M69.1,193.9c-0.6,1.2-1.3,1.9-2.3,2.2
			c-1,0.3-2.2,0.1-3.6-0.6l-5-2.4l3.4-7.1l5,2.4c1.5,0.7,2.4,1.5,2.8,2.4C69.7,191.7,69.6,192.8,69.1,193.9z"/>
		<path class="st0" d="M85.9,192.2L85.9,192.2l-9.8-2.3l-4.8,20.9l2.8,0.6l2.1-8.9l6.8,1.6c0.7,0.2,1.2,0.4,1.6,0.7
			c0.4,0.3,0.6,0.6,0.8,1c0.2,0.4,0.3,0.8,0.3,1.3c0,0.5,0,1,0,1.5c0,0.5-0.1,1.1-0.2,1.6c-0.1,0.5-0.2,1-0.3,1.5
			c-0.1,0.5-0.1,0.9-0.2,1.3c0,0.4,0,0.7,0.2,1l3.1,0.7c-0.2-0.4-0.3-0.9-0.4-1.4c0-0.5,0-1,0-1.5c0-0.5,0.1-1.1,0.2-1.6
			c0.1-0.5,0.2-1.1,0.3-1.6c0.1-0.5,0.1-1,0.1-1.5c0-0.5-0.1-1-0.2-1.4c-0.1-0.4-0.4-0.8-0.7-1.2c-0.3-0.4-0.8-0.7-1.3-0.9l0-0.1
			c1.3-0.1,2.4-0.5,3.2-1.3c0.8-0.8,1.3-1.9,1.6-3.1c0.4-1.7,0.1-3.2-0.8-4.4C89.3,193.5,87.9,192.7,85.9,192.2z M88.1,198.9
			L88.1,198.9c-0.2,0.8-0.5,1.3-0.8,1.8c-0.4,0.4-0.8,0.7-1.3,0.9c-0.5,0.2-1.1,0.3-1.7,0.2c-0.6,0-1.2-0.1-1.9-0.3l-5.8-1.3
			l1.7-7.3l6.9,1.6c1.3,0.3,2.2,0.9,2.6,1.6C88.2,197,88.3,197.9,88.1,198.9z"/>
		<path class="st0" d="M111.1,196.7L111.1,196.7c-0.9-1-2-1.8-3.2-2.4s-2.8-0.9-4.5-0.9c-1.7,0-3.2,0.4-4.5,1
			c-1.3,0.6-2.3,1.5-3.2,2.5c-0.8,1.1-1.5,2.3-1.9,3.6c-0.4,1.4-0.6,2.8-0.6,4.2c0,1.5,0.3,2.9,0.7,4.2c0.5,1.3,1.1,2.5,2,3.6
			c0.9,1,2,1.8,3.2,2.4c1.3,0.6,2.8,0.9,4.5,0.8c1.7,0,3.2-0.4,4.5-1c1.3-0.6,2.3-1.5,3.2-2.5c0.8-1.1,1.5-2.3,1.9-3.6
			c0.4-1.4,0.6-2.8,0.6-4.2c0-1.5-0.3-2.9-0.7-4.2C112.6,198.9,111.9,197.7,111.1,196.7z M110.6,207.7L110.6,207.7
			c-0.3,1.1-0.7,2-1.3,2.9c-0.6,0.8-1.3,1.5-2.3,2.1c-0.9,0.5-2,0.8-3.3,0.8c-1.3,0-2.4-0.2-3.4-0.7c-0.9-0.5-1.7-1.2-2.3-2
			s-1.1-1.8-1.4-2.8c-0.3-1-0.5-2.1-0.5-3.2c0-1.1,0.1-2.1,0.4-3.2c0.3-1.1,0.7-2,1.3-2.9s1.3-1.5,2.3-2.1c0.9-0.5,2-0.8,3.3-0.8
			c1.3,0,2.4,0.2,3.4,0.7c0.9,0.5,1.7,1.2,2.3,2c0.6,0.8,1.1,1.8,1.4,2.8s0.5,2.1,0.5,3.2C110.9,205.5,110.8,206.6,110.6,207.7z"/>
		<path class="st0" d="M126,190.7L126,190.7l-2.8,0.6l3.4,15.3c0.3,1.2,0.2,2.1-0.1,2.9c-0.3,0.8-1.1,1.3-2.4,1.6
			c-0.7,0.2-1.3,0.2-1.8,0.1c-0.5-0.1-0.9-0.3-1.2-0.6c-0.3-0.3-0.6-0.7-0.8-1.2c-0.2-0.5-0.4-1-0.5-1.6l-0.2-0.9l-2.8,0.6l0.3,1.3
			c0.4,2,1.3,3.4,2.6,4.2c1.3,0.8,2.9,1,4.9,0.5c1.2-0.3,2.1-0.6,2.8-1.1c0.7-0.5,1.3-1.1,1.6-1.7c0.4-0.6,0.6-1.3,0.6-2.1
			c0.1-0.7,0-1.4-0.2-2.1L126,190.7z"/>
		<polygon class="st0" points="139.2,206.2 136.3,199.4 146.5,195 145.6,192.8 135.4,197.2 132.7,191 143.7,186.3 142.7,184 
			129.1,189.9 137.5,209.6 151.2,203.7 150.3,201.5 		"/>
		<path class="st0" d="M164.5,185.1L164.5,185.1c0.5,0.8,0.8,1.5,1,2.3c0.2,0.8,0.2,1.6,0.1,2.3c-0.1,0.8-0.4,1.5-0.8,2.2
			c-0.4,0.7-1,1.3-1.8,1.8c-1,0.7-2.1,1.2-3.1,1.3c-1,0.1-2,0.1-3-0.2c-1-0.3-1.9-0.8-2.7-1.6c-0.9-0.7-1.7-1.6-2.4-2.6
			c-0.7-0.9-1.2-1.9-1.6-2.9c-0.4-1-0.6-2-0.6-3c0-1,0.2-2,0.7-2.9c0.5-0.9,1.2-1.8,2.2-2.5c1.2-0.9,2.5-1.3,3.8-1.3
			c1.3,0,2.6,0.5,3.7,1.5l2.3-1.7c-0.8-0.8-1.7-1.4-2.6-1.9c-0.9-0.4-1.9-0.6-2.9-0.6c-1,0-2,0.1-2.9,0.5c-1,0.3-1.9,0.8-2.8,1.5
			c-1.3,1-2.3,2-3,3.3c-0.7,1.2-1.1,2.5-1.2,3.8c-0.1,1.3,0.1,2.7,0.5,4c0.4,1.4,1.1,2.7,2,4c0.9,1.3,1.9,2.3,3.1,3.2
			c1.1,0.9,2.3,1.5,3.6,1.8c1.2,0.3,2.5,0.4,3.9,0.1c1.3-0.3,2.7-0.9,4-1.8c2.2-1.6,3.5-3.5,3.9-5.6c0.4-2.1-0.1-4.4-1.4-6.7
			L164.5,185.1z"/>
		<polygon class="st0" points="171.9,161.7 170.2,160.1 158.7,172.8 160.4,174.4 165.2,169.1 179.3,181.9 181.2,179.7 167.1,167 		
			"/>
		<path class="st0" d="M194.2,155.7c-0.4-0.9-1.1-1.6-2.1-2.2v0c-0.9-0.5-1.8-0.8-2.6-0.8c-0.8,0-1.6,0.1-2.3,0.5
			c-0.7,0.3-1.4,0.8-2.1,1.3c-0.7,0.6-1.3,1.2-1.9,1.8c-0.6,0.6-1.2,1.3-1.8,1.9c-0.6,0.6-1.1,1.1-1.7,1.6c-0.6,0.4-1.1,0.7-1.7,0.8
			c-0.6,0.1-1.1,0-1.7-0.3c-0.6-0.4-1-0.8-1.3-1.2c-0.3-0.5-0.4-1-0.4-1.5c0-0.5,0.1-1.1,0.3-1.6c0.2-0.6,0.4-1.1,0.7-1.6
			c0.8-1.3,1.7-2.1,2.8-2.6c1.1-0.5,2.3-0.4,3.7,0.3l1.4-2.3c-1-0.6-2-0.9-3-1c-0.9-0.1-1.8,0-2.7,0.4c-0.8,0.3-1.6,0.8-2.3,1.5
			c-0.7,0.7-1.3,1.5-1.9,2.4c-0.5,0.8-0.9,1.7-1.1,2.7c-0.3,0.9-0.4,1.8-0.3,2.7c0.1,0.9,0.3,1.7,0.8,2.5c0.5,0.8,1.1,1.4,2.1,2
			c0.8,0.5,1.6,0.7,2.4,0.7c0.8,0,1.5-0.2,2.2-0.5c0.7-0.3,1.3-0.8,2-1.4c0.6-0.6,1.2-1.2,1.8-1.8c0.6-0.6,1.2-1.3,1.8-1.9
			c0.6-0.6,1.2-1.1,1.7-1.5s1.2-0.7,1.8-0.8c0.6-0.1,1.2,0,1.8,0.4c0.7,0.4,1.1,0.9,1.4,1.4c0.3,0.5,0.4,1.1,0.4,1.7
			c0,0.6-0.1,1.2-0.4,1.8c-0.2,0.6-0.5,1.2-0.8,1.8c-0.4,0.7-0.9,1.3-1.5,1.9c-0.6,0.6-1.2,1-1.8,1.2c-0.7,0.3-1.3,0.4-2.1,0.4
			c-0.7,0-1.5-0.3-2.3-0.7l-1.4,2.3c1.1,0.7,2.2,1,3.3,1.1c1.1,0.1,2.1-0.1,3-0.5c0.9-0.4,1.8-1,2.6-1.7c0.8-0.8,1.5-1.7,2.1-2.7
			c0.5-0.8,0.9-1.7,1.2-2.7c0.3-1,0.4-1.9,0.4-2.9C194.8,157.5,194.6,156.6,194.2,155.7z"/>
	</g>
	<circle class="st1" cx="5" cy="110.6" r="5"/>
	<circle class="st1" cx="198.8" cy="110.6" r="5"/>
</g>
</svg>
